<?xml version="1.0" encoding="iso-8859-1"?>
<!-- Generator: Adobe Illustrator 19.0.0, SVG Export Plug-In . SVG Version: 6.00 Build 0)  -->
<svg version="1.1" id="Capa_1" xmlns="http://www.w3.org/2000/svg" xmlns:xlink="http://www.w3.org/1999/xlink" x="0px" y="0px"
	 viewBox="0 0 496.485 496.485" style="enable-background:new 0 0 496.485 496.485;" xml:space="preserve">
<rect x="91.927" y="6.982" style="fill:#FFFFFF;" width="311.079" height="83.006"/>
<path style="fill:#193651;" d="M403.782,97.745H91.927c-3.879,0-6.982-3.103-6.982-6.982V6.982C84.945,3.103,88.048,0,91.927,0
	h311.079c4.655,0,7.758,3.103,7.758,6.982v83.006C410.764,94.642,407.661,97.745,403.782,97.745z M99.685,83.006H396.8V14.739
	H99.685V83.006z"/>
<rect x="120.63" y="36.461" style="fill:#F16051;" width="253.673" height="25.6"/>
<circle style="fill:#FDBF5E;" cx="240.873" cy="337.455" r="159.03"/>
<g>
	<rect x="416.194" y="252.121" style="fill:#193651;" width="14.739" height="14.739"/>
	<rect x="416.194" y="290.909" style="fill:#193651;" width="14.739" height="14.739"/>
	<rect x="416.194" y="329.697" style="fill:#193651;" width="14.739" height="14.739"/>
	<rect x="50.036" y="252.121" style="fill:#193651;" width="14.739" height="14.739"/>
</g>
<rect x="50.036" y="290.909" style="fill:#193651;" width="14.739" height="14.739"/>
<rect x="50.036" y="329.697" style="fill:#193651;" width="14.739" height="14.739"/>
<polygon style="fill:#FFFFFF;" points="403.782,6.982 469.721,84.558 308.364,314.958 225.358,262.206 "/>
<path style="fill:#193651;" d="M308.364,322.715c-1.552,0-2.327,0-3.879-0.776l-83.006-52.751c-1.552-0.776-3.103-3.103-3.103-4.655
	c0-1.552,0-3.879,0.776-5.43L397.576,3.879C399.127,1.552,400.679,0,403.006,0s4.655,0.776,6.206,2.327l66.715,76.8
	c2.327,2.327,2.327,6.206,0.776,8.533L313.794,319.612C313.018,321.164,310.691,322.715,308.364,322.715z M235.442,260.655
	l70.594,44.994L460.412,84.558l-56.63-65.939L235.442,260.655z"/>
<polygon style="fill:#F16051;" points="265.697,254.448 406.109,54.303 433.261,86.109 300.606,276.17 "/>
<polygon style="fill:#FFFFFF;" points="91.927,6.982 25.988,84.558 174.933,314.958 257.939,262.206 "/>
<path style="fill:#193651;" d="M174.933,322.715c-2.327,0-4.655-0.776-6.206-3.103L19.782,88.436
	c-1.552-2.327-1.552-6.206,0.776-8.533l66.715-76.8C88.048,0.776,90.376,0,92.703,0c2.327,0,4.655,1.552,5.43,3.103l166.012,255.224
	c0.776,1.552,1.552,3.879,0.776,5.43c-0.776,1.552-1.552,3.879-3.103,4.655l-83.006,52.752
	C178.036,321.939,176.485,322.715,174.933,322.715z M34.521,84.558l142.739,220.315l70.594-44.994L91.152,19.394L34.521,84.558z"/>
<polygon style="fill:#F16051;" points="61.673,86.885 88.824,55.079 218.376,253.673 184.242,275.394 "/>
<circle style="fill:#FFFFFF;" cx="240.873" cy="337.455" r="117.139"/>
<path style="fill:#193651;" d="M240.873,461.576c-69.042,0-124.897-55.855-124.897-124.897s55.855-124.897,124.897-124.897
	S365.77,267.636,365.77,336.679C364.994,405.721,309.139,461.576,240.873,461.576z M240.873,227.297
	c-60.509,0-110.158,49.648-110.158,110.158s49.648,110.158,110.158,110.158S351.03,397.964,351.03,337.455
	C351.03,276.17,301.382,227.297,240.873,227.297z"/>
<path style="fill:#4FBF9F;" d="M240.873,425.891c-48.873,0-88.436-39.564-88.436-88.436s39.564-88.436,88.436-88.436
	s88.436,39.564,88.436,88.436S288.97,425.891,240.873,425.891z"/>
<path style="fill:#193651;" d="M263.37,388.655h-19.394v-74.473c-6.982,6.982-15.515,11.636-25.6,14.739v-17.842
	c5.43-1.552,10.861-4.655,17.067-9.309c6.206-4.655,10.085-10.085,12.412-16.291h15.515V388.655z"/>
<g>
</g>
<g>
</g>
<g>
</g>
<g>
</g>
<g>
</g>
<g>
</g>
<g>
</g>
<g>
</g>
<g>
</g>
<g>
</g>
<g>
</g>
<g>
</g>
<g>
</g>
<g>
</g>
<g>
</g>
</svg>
